<?xml version="1.0" standalone="no"?>
<!DOCTYPE svg PUBLIC "-//W3C//DTD SVG 1.1//EN" "http://www.w3.org/Graphics/SVG/1.1/DTD/svg11.dtd" >
<svg xmlns="http://www.w3.org/2000/svg">
<metadata>
Created by FontForge 20120731 at Fri Jun 12 16:07:18 2015
 By Ads
</metadata>
<defs>
<font id="iconfont" horiz-adv-x="1024" >
  <font-face 
    font-family="iconfont"
    font-weight="500"
    font-stretch="normal"
    units-per-em="1024"
    panose-1="2 0 6 3 0 0 0 0 0 0"
    ascent="812"
    descent="-212"
    x-height="792"
    bbox="0 -212 1024 812.118"
    underline-thickness="50"
    underline-position="-100"
    unicode-range="U+0078-E61E"
  />
<missing-glyph horiz-adv-x="374" 
d="M34 0v682h272v-682h-272zM68 34h204v614h-204v-614z" />
    <glyph glyph-name=".notdef" horiz-adv-x="374" 
d="M34 0v682h272v-682h-272zM68 34h204v614h-204v-614z" />
    <glyph glyph-name=".null" horiz-adv-x="0" 
 />
    <glyph glyph-name="nonmarkingreturn" horiz-adv-x="341" 
 />
    <glyph glyph-name="x" unicode="x" horiz-adv-x="1001" 
d="M281 543q-27 -1 -53 -1h-83q-18 0 -36.5 -6t-32.5 -18.5t-23 -32t-9 -45.5v-76h912v41q0 16 -0.5 30t-0.5 18q0 13 -5 29t-17 29.5t-31.5 22.5t-49.5 9h-133v-97h-438v97zM955 310v-52q0 -23 0.5 -52t0.5 -58t-10.5 -47.5t-26 -30t-33 -16t-31.5 -4.5q-14 -1 -29.5 -0.5
t-29.5 0.5h-32l-45 128h-439l-44 -128h-29h-34q-20 0 -45 1q-25 0 -41 9.5t-25.5 23t-13.5 29.5t-4 30v167h911zM163 247q-12 0 -21 -8.5t-9 -21.5t9 -21.5t21 -8.5q13 0 22 8.5t9 21.5t-9 21.5t-22 8.5zM316 123q-8 -26 -14 -48q-5 -19 -10.5 -37t-7.5 -25t-3 -15t1 -14.5
t9.5 -10.5t21.5 -4h37h67h81h80h64h36q23 0 34 12t2 38q-5 13 -9.5 30.5t-9.5 34.5q-5 19 -11 39h-368zM336 498v228q0 11 2.5 23t10 21.5t20.5 15.5t34 6h188q31 0 51.5 -14.5t20.5 -52.5v-227h-327z" />
    <glyph glyph-name="uniE600" unicode="&#xe600;" 
d="M686 710q-24 -11 -29 -32.5t13 -39.5q9 -8 21.5 -10.5t47.5 -2.5q95 0 144 -56q31 -35 38 -58.5t7 -86.5q0 -57 2.5 -68t15.5 -19q30 -17 49.5 3.5t26.5 77.5q9 73 -29.5 149t-104.5 115q-43 25 -105.5 33.5t-96.5 -5.5zM356 585q-111 -40 -226 -162
q-138 -147 -129.5 -277t160.5 -205q104 -51 227 -58.5t235.5 28.5t188.5 109q57 54 73.5 114t-11 109t-92.5 72q-17 6 -23.5 11t-3.5 10q20 51 9 84q-16 48 -70.5 58.5t-138.5 -17.5l-45 -16l4 45q3 40 -6 63t-33 35q-19 10 -53 9t-66 -12zM543 325q75 -21 118 -63.5
t43 -96.5q0 -60 -50 -110.5t-137 -79.5q-46 -15 -118.5 -17.5t-114.5 9.5q-80 22 -123.5 65t-43.5 100q0 61 58 114q28 27 53.5 42t65.5 28q128 43 249 9zM331 260q-104 -49 -104 -140q0 -80 77 -121q31 -17 79.5 -16t82.5 19q44 23 70.5 62.5t26.5 81.5q-1 34 -27 69.5
t-62 49.5q-29 12 -71 10.5t-72 -15.5zM380 134q8 -8 8 -26q0 -26 -31 -41t-48 2q-9 10 -7.5 29t12.5 30t34 13t32 -7zM698 572q-24 -23 -11 -45.5t50 -22.5q31 0 46 -16.5t15 -53.5q0 -22 2.5 -31.5t11.5 -15.5q28 -19 47 -0.5t19 63.5q0 55 -35.5 92t-91.5 41
q-25 2 -34.5 0t-18.5 -11z" />
    <glyph glyph-name="uniE601" unicode="&#xe601;" 
d="M716 -146q-68 0 -179 69q-105 65 -206 163l-21 21q-98 100 -163 206q-68 111 -68 179q0 66 61 147q11 16 24.5 31t38.5 33t44 18q25 0 61 -37q27 -28 57 -71q28 -41 48 -78q23 -43 23 -64q0 -27 -29 -47q-12 -9 -42 -21q-25 -11 -31 -16q5 -21 36 -66q36 -53 79 -97
q43 -42 96 -79q45 -30 66 -35q5 6 16 31q13 30 21 42q20 28 47 28q22 0 65 -22q37 -20 78 -48q43 -31 70 -57q37 -36 37 -61q0 -20 -17.5 -44.5t-33 -38t-30.5 -24.5q-82 -62 -148 -62zM367 122q96 -94 197 -155q99 -61 152 -61q48 0 115 49q28 21 46 42q14 16 17 25
q-4 9 -27 30.5t-63 49.5q-37 25 -69 42q-28 14 -39 16q-3 -2 -8 -10t-14 -29q-11 -26 -18 -37q-17 -26 -42 -26h-1q-31 1 -96 45q-58 39 -104 85h-1q-46 47 -85 104q-44 65 -44 97q-1 25 25 42q11 7 37 19q21 9 29 13.5t10 8.5q-1 11 -16 39q-17 32 -42 68
q-28 41 -49.5 63.5t-30.5 27.5q-9 -3 -25 -17q-21 -18 -42 -47q-49 -66 -49 -114q0 -54 61 -152q62 -101 156 -197z" />
    <glyph glyph-name="uniE602" unicode="&#xe602;" 
d="M693 465q15 0 35 -2q-23 109 -127.5 181.5t-238.5 72.5q-98 0 -181 -40.5t-132 -111.5t-49 -156q0 -143 145 -245l-36 -109l127 64q6 -2 25 -5.5t27 -5t22.5 -4t26.5 -3t25 -0.5q16 0 34 1q-11 38 -11 76q0 119 89.5 203t218.5 84zM498 563q21 0 33.5 -12.5t12.5 -33
t-12.5 -33t-33.5 -12.5t-37.5 13t-16.5 32.5t16.5 32.5t37.5 13zM245 472q-22 0 -38.5 13t-16.5 32.5t16.5 32.5t38.5 13q20 0 32.5 -12.5t12.5 -33t-12.5 -33t-32.5 -12.5zM1024 182q0 71 -43 132t-113.5 96t-151.5 35q-129 0 -218.5 -77t-89.5 -186t89.5 -186t218.5 -77
q37 0 109 18l99 -54l-27 90q127 96 127 209zM616 228q-13 0 -24.5 11t-11.5 24.5t11.5 25t24.5 11.5q20 0 33 -11t13 -25.5t-13 -25t-33 -10.5zM815 228q-13 0 -24.5 11t-11.5 24.5t11.5 25t24.5 11.5q20 0 33 -11t13 -25.5t-13 -25t-33 -10.5z" />
    <glyph glyph-name="uniE603" unicode="&#xe603;" 
d="M187 741q29 0 49 -19.5t20 -47.5v-52q0 -29 -20 -49t-49 -20h-54q-28 0 -47.5 20t-19.5 49v52q0 28 19.5 47.5t47.5 19.5h54zM890 741q28 0 47.5 -19.5t19.5 -47.5v-52q0 -29 -19.5 -49t-47.5 -20h-437q-29 0 -49 20t-20 49v52q0 28 20 47.5t49 19.5h437zM187 423
q29 0 49 -20t20 -49v-52q0 -28 -20 -48t-49 -20h-54q-28 0 -47.5 20t-19.5 48v52q0 29 19.5 49t47.5 20h54zM890 423q28 0 47.5 -20t19.5 -49v-52q0 -28 -19.5 -48t-47.5 -20h-437q-29 0 -49 20t-20 48v52q0 29 20 49t49 20h437zM187 103q29 0 49 -20t20 -47v-52
q0 -29 -20 -49t-49 -20h-54q-28 0 -47.5 20t-19.5 49v52q0 27 19.5 47t47.5 20h54zM890 103q28 0 47.5 -20t19.5 -47v-52q0 -29 -19.5 -49t-47.5 -20h-437q-29 0 -49 20t-20 49v52q0 27 20 47t49 20h437z" />
    <glyph glyph-name="uniE604" unicode="&#xe604;" 
d="M600 -155h-179h-64q-21 0 -57 1t-54.5 3.5t-44.5 7t-39 11.5t-27 16.5t-19.5 23.5t-5.5 31v18q0 126 91 216t220 90h179q129 0 220 -90t91 -216v-18q0 -17 -5.5 -31t-20 -23.5t-28 -16.5t-40 -11.5t-45 -7t-54 -3.5t-56.5 -1h-62zM421 199q-102 0 -174.5 -71t-72.5 -171
v-18q0 -11 23 -17.5t68.5 -9t75.5 -3t80 -0.5h179q247 0 247 30v18q0 100 -72.5 171t-174.5 71h-179zM501.5 269q-102.5 0 -175 72t-72.5 173t72.5 172.5t175 71.5t175 -71.5t72.5 -172.5t-72.5 -173t-175 -72zM318 513.5q0 -74.5 54 -127.5t130 -53t129.5 53t53.5 127.5
t-53.5 127.5t-129.5 53t-130 -53t-54 -127.5z" />
    <glyph glyph-name="uniE605" unicode="&#xe605;" 
d="M878 -211h-854q-10 0 -17 7t-7 17v975q0 10 7 17t17 7h610q10 0 17 -7t7 -17t-7 -17t-17 -7h-585v-927h804v705q0 10 7.5 17t17.5 7t17 -7t7 -17v-729q0 -10 -7 -17t-17 -7zM878 521h-243q-10 0 -17 7t-7 17v243q0 16 15 22t26 -5l242 -242q8 -7 8 -18q0 -10 -7 -17
t-17 -7zM659 569h160l-160 160v-160zM464 528h-337q-10 0 -17 7t-7 17.5t7 17.5t17 7h337q10 0 17.5 -7t7.5 -17.5t-7.5 -17.5t-17.5 -7zM785 339h-659q-10 0 -17 7t-7 17t7 17.5t17 7.5h660q10 0 17 -7.5t7 -17.5t-7.5 -17t-17.5 -7zM785 201h-659q-10 0 -17 7t-7 17t7 17
t17 7h660q10 0 17 -7t7 -17t-7.5 -17t-17.5 -7zM785 63h-659q-10 0 -17 7t-7 17t7 17t17 7h660q10 0 17 -7t7 -17t-7.5 -17t-17.5 -7zM785 63z" />
    <glyph glyph-name="uniE606" unicode="&#xe606;" 
d="M117 126l373 -208v432q-32 7 -102.5 50.5t-147 88t-123.5 55.5v-418zM144 595l375 -200l173 95q51 31 193 101q-48 31 -201 124.5t-165 96.5q-13 -4 -69 -35.5t-123 -70t-85 -48.5q-26 -17 -41.5 -26t-19 -11t-12 -7.5t-25.5 -18.5zM549 350v-432l358 208v418
q-32 -9 -180.5 -98t-177.5 -96z" />
    <glyph glyph-name="uniE607" unicode="&#xe607;" 
d="M920 592h-6h-807h-7h-21h-8v-580h879v580h-30zM879 556l-339 -350q-12 -12 -29.5 -12t-28.5 12l-340 350h737zM106 541l229 -235l-229 -235v470zM134 49l226 232l97 -101q22 -23 53.5 -23t54.5 23l97 101l225 -232h-753zM915 71l-228 235l228 235v-470z" />
    <glyph glyph-name="uniE608" unicode="&#xe608;" 
d="M449 -82q-130 0 -228 24.5t-111 67.5h-2v10v2v208v1v406h1q-1 4 -1 7q0 33 49.5 57t125.5 35.5t166 11.5t170 -11.5t134 -36t54 -56.5q0 -4 -1 -7h1v-364q-21 8 -44 12v102q-42 -26 -124 -40t-181 -14q-234 0 -306 56v-172q40 -26 120 -45t184 -19q24 0 47 1
q-9 -19 -14 -39h-32q-94 0 -177 15.5t-128 42.5v-162q38 -22 116 -38t180 -16q25 0 49 2q8 -21 20 -39q-34 -2 -68 -2v0zM152 587v-148q24 -25 105.5 -44t200.5 -19q116 0 196.5 18t108.5 42v154q-48 -28 -134.5 -44.5t-179.5 -16.5q-91 0 -171.5 16t-125.5 42v0zM457 712
q-90 0 -163 -13.5t-107.5 -31.5t-34.5 -33t37 -29t111 -23t168 -9q93 0 162 9t101 23t32 29t-34.5 33t-108 31.5t-163.5 13.5v0zM719 -148q-81 0 -138.5 58t-57.5 139t57.5 138.5t139 57.5t139 -57.5t57.5 -138.5t-57.5 -139t-139.5 -58v0zM719 202q-63 0 -107.5 -45
t-44.5 -108t44.5 -108t108 -45t108 45t44.5 108t-44.5 108t-108.5 45v0zM701 -27q-9 0 -16 6l-46 47q-6 6 -6 15t6 15.5t15.5 6.5t15.5 -6l31 -31l90 90q6 6 15 6t15.5 -6.5t6.5 -15.5t-6 -15l-106 -106q-6 -6 -15 -6v0z" />
    <glyph glyph-name="uniE609" unicode="&#xe609;" horiz-adv-x="1000" 
d="M77 632h873v-628h-873v628zM112 597v-21v-23q67 -58 191.5 -166.5t150.5 -130.5q27 -25 60 -25t60 25q23 20 148.5 129.5t192.5 167.5v22v22h-803zM112 126q43 34 121 95.5t108 85.5q-29 26 -107.5 94.5t-121.5 105.5v-381zM686 307q31 -24 109 -85.5t120 -95.5v381
q-42 -37 -120 -104.5t-109 -95.5zM121 89q-8 -8 -9 -8v-21v-21h402h401v18v19q-1 7 -2 7q-41 33 -125.5 100t-128.5 101q-12 -10 -34.5 -29.5t-27.5 -24.5q-28 -24 -57 -31q-39 -11 -80 10q-14 8 -43 32q-7 7 -23.5 21t-25.5 22q-47 -37 -135 -106.5t-112 -88.5z" />
    <glyph glyph-name="uniE60A" unicode="&#xe60a;" 
d="M511.5 722q-114.5 0 -212 -56.5t-154 -154t-56.5 -212t56.5 -211.5t154 -153.5t212 -56.5t212 56.5t154 153.5t56.5 211.5t-56.5 212t-154 154t-212 56.5zM679 328v-58h-110v-83h111v-55h-112v-111h-111v111h-114v55h114v84h-114v56h113l-136 228h73l121 -196l118 196h70
l-134 -227h111z" />
    <glyph glyph-name="uniE60B" unicode="&#xe60b;" 
d="M534 748q62 0 113 -16t83 -41.5t56 -56t36 -61.5t19.5 -56.5t8.5 -41.5l2 -16q20 -27 25.5 -55.5t0.5 -44.5l-5 -15q30 -48 49 -89.5t25 -71.5t5.5 -54.5t-6.5 -40t-15.5 -26.5t-17.5 -15.5t-14 -6.5q-12 -2 -24.5 5.5t-19.5 15t-7 8.5q-9 -34 -30 -51q22 -10 36 -22
t19.5 -22t7.5 -18.5t1 -13.5l-1 -5q0 -2 -1.5 -7t-9.5 -17t-20 -22t-38 -19t-60 -11.5t-87.5 3.5t-118.5 24l-28 5q-227 -82 -316 -3q-23 20 -28 41q-1 3 -1.5 7t0.5 16t5 22.5t15 22t28 18.5q-16 9 -27.5 26t-15.5 27.5t-4 11.5q-1 -1 -2 -2.5t-5 -6.5t-8.5 -9t-11 -8.5
t-13.5 -7t-15.5 -2.5t-16.5 4q-13 6 -22 27t-9 53.5t9.5 69t37.5 78t72 75.5q-1 2 -2 7t-2.5 19.5t0.5 28t10 30t22 27.5l8 49q34 141 149 200q68 34 159 34zM265 449q-18 -16 -27.5 -33.5t-9 -31t3.5 -25t7 -18.5l4 -6q-30 -18 -53 -41t-35.5 -45.5t-21 -44.5t-10.5 -41
t-2.5 -33.5t0.5 -23t1 -7.5q23 11 40 45q9 15 18.5 14t16.5 -10l8 -9q2 -9 6 -23t20.5 -43t38.5 -43q22 -15 21.5 -26.5t-11.5 -17.5l-12 -6q-2 0 -5.5 -0.5t-13 -2.5t-16 -5.5t-11.5 -11t-4 -18.5q2 -11 21.5 -22t51.5 -17.5t68 -7t75.5 11t68.5 34.5l56 -7q52 -18 99 -25
t77.5 -4t54.5 10t35.5 14t13.5 12q4 8 -14.5 22t-44.5 25q-48 20 -11 45q8 5 14 12t12 18t9.5 17.5t10 22.5t8.5 22q7 17 17.5 20.5t17.5 -1t8 -11.5q2 -4 8.5 -15.5t12.5 -20.5l5 -10q3 3 6 8.5t7 26.5t0 47t-23 71t-54 98q1 2 2.5 6t4 16t1.5 24t-7.5 27.5t-19.5 27.5
q0 6 -1 15.5t-7.5 36.5t-16.5 52t-31.5 55.5t-49.5 52t-73.5 36.5t-100.5 15t-99 -14t-71 -36.5t-46.5 -49t-28.5 -54t-13.5 -49t-4.5 -35.5z" />
    <glyph glyph-name="uniE60C" unicode="&#xe60c;" 
d="M809 436q0 123 -88 210t-212.5 87t-212.5 -87t-88 -210q0 -69 30.5 -130t84.5 -103q-96 -48 -156 -137t-68 -197h45q8 102 69 185.5t154 119.5q74 -35 141 -35q68 0 130 30l31 18l25 16q53 42 84 103t31 130zM508 188q-104 0 -177.5 72.5t-73.5 175.5t73.5 176t178 73
t178 -73t73.5 -176q0 -104 -72 -176t-180 -72zM763 160l-1 -1q-8 8 -18 8q-28 0 -28 -21q0 -16 15 -24q118 -85 131 -253h55q-6 86 -46.5 162t-107.5 129z" />
    <glyph glyph-name="uniE60D" unicode="&#xe60d;" 
d="M711 308q-14 2 -18.5 8t-0.5 11l3 4q1 3 3 6.5t5 14.5t4 22t-3.5 24.5t-15.5 23.5q-13 14 -34.5 18t-42.5 0.5t-40.5 -8.5t-31.5 -10l-12 -6q-10 -3 -16 -4t-9.5 0.5t-5.5 3t-1.5 7t1 9t2.5 11.5t3 13q0 15 -2.5 27t-10.5 25.5t-21 20.5t-38 6.5t-58 -11.5t-67 -34
t-59.5 -47.5t-46.5 -47t-32 -37.5l-11 -15q-31 -41 -46 -82.5t-15 -61.5v-21q5 -46 27.5 -82t53.5 -59t73 -38.5t80.5 -23t81.5 -10.5q71 -6 146.5 11t141 58t92.5 99q16 34 16 63.5t-10 48t-27 33t-31.5 21t-26.5 9.5zM421 10q-103 -5 -175 40t-72 114q0 68 71.5 117.5
t175.5 54.5q104 4 175.5 -35.5t71.5 -106.5q0 -70 -73 -125t-174 -59zM393 275q-38 -4 -64.5 -21t-37 -37.5t-16 -40.5t-4.5 -33l1 -13v-5q0 -3 2 -11t5.5 -15.5t11 -16.5t18.5 -14q62 -31 116.5 -19t88.5 56q16 20 17.5 51.5t-10.5 60t-45.5 46.5t-82.5 12zM359 93.5
q-19 -2.5 -32.5 7.5t-13.5 26q0 17 12.5 31t30.5 16q22 2 35.5 -9t13.5 -27t-13.5 -29t-32.5 -15.5zM439.5 163q-6.5 -5 -13.5 -4.5t-10 6.5q-4 6 -2.5 14t8.5 12q7 6 14 5t10.5 -7t1.5 -13.5t-8.5 -12.5zM778 364q8 0 14.5 5.5t7.5 13.5v2q4 31 -1 54.5t-15.5 36.5
t-24.5 22t-28.5 11.5t-26.5 3t-19 -0.5l-8 -1q-9 0 -16 -7t-7 -16t7 -16t16 -7q75 17 80 -49l-2 -30q0 -9 7 -15.5t16 -6.5zM762 629q-48 11 -113 -2l-1 -1h-2l-1 -1q-10 -2 -16.5 -11t-6.5 -20q0 -14 9.5 -23.5t22.5 -9.5q18 2 30 7q5 0 16.5 1.5t31 -3.5t39 -12.5
t40.5 -25t35 -41.5q25 -57 10 -109q-6 -17 -6 -32q0 -14 9 -22t23 -8t21.5 5t10.5 23q17 53 13 96.5t-18.5 75.5t-40.5 55.5t-52 37t-54 20.5z" />
    <glyph glyph-name="uniE60E" unicode="&#xe60e;" 
d="M664 443q13 0 30 -1q-20 92 -108.5 153t-202.5 61q-127 0 -217.5 -75.5t-90.5 -184.5q0 -120 123 -205l-31 -92l108 53q78 -15 108 -15q13 0 29 1q-10 33 -10 64q0 100 76.5 170.5t185.5 70.5zM499 526q17 0 27.5 -10.5t10.5 -27.5t-10.5 -27.5t-27.5 -10.5q-19 0 -33 11
t-14 27.5t14 27t33 10.5zM283 450q-18 0 -32 11t-14 27.5t14 27t32 10.5q17 0 27.5 -10.5t10.5 -27.5t-10.5 -27.5t-27.5 -10.5zM945 206q0 90 -78 155.5t-183 65.5q-110 0 -186 -64.5t-76 -156.5t76 -156.5t186 -64.5q31 0 92 15l85 -46l-23 76q107 80 107 176zM599 244
q-12 0 -21.5 9.5t-9.5 21t9.5 21t21.5 9.5q17 0 27.5 -9.5t10.5 -21.5t-10.5 -21t-27.5 -9zM768 244q-11 0 -20.5 9.5t-9.5 21t9.5 21t20.5 9.5q17 0 28 -9.5t11 -21.5t-11 -21t-28 -9z" />
    <glyph glyph-name="uniE60F" unicode="&#xe60f;" 
d="M165 148q-29 -33 -29.5 -74.5t27.5 -66.5l111 -100l6 -4q11 -8 27 -10q41 -6 105 25q62 31 134.5 91t141.5 140t118 160.5t70 147.5q31 97 -3 135l-4 5l-112 99q-18 16 -42 19q-25 4 -51 -6.5t-45 -32.5l-70 -82q-29 -34 -29.5 -75.5t27.5 -66.5l106 -95
q-37 -53 -81 -105q-45 -52 -92 -96l-107 95q-18 15 -42 19q-25 3 -51 -7.5t-45 -32.5zM708 666q10 -2 16 -8l12 -10l-146 -167l-11 9q-11 10 -10 28q0 23 17 43l70 81q24 28 52 24zM236 11l146 167l78 -71l21 -19l32 31q49 46 96 100q46 54 85 109l26 37l-34 30l-64 57
l148 169l65 -61l2 -2q13 -19 -8 -86q-20 -60 -65 -135q-47 -78 -113.5 -155t-136.5 -135q-66 -56 -123 -83q-51 -25 -77 -21q-4 0 -6 1l-2 2zM185 73q0 22 17 42l70 82q24 27 52 23q10 -1 16 -7l9 -8l-145 -167l-9 6q-11 10 -10 29z" />
    <glyph glyph-name="uniE610" unicode="&#xe610;" 
d="M460 205h234q10 0 18 7t8 17.5t-8 17.5t-18 7h-234q-11 0 -18.5 -7t-7.5 -17.5t7.5 -17.5t18.5 -7zM382 -12h288v1q16 2 16 19q0 7 -4.5 12.5t-11.5 6.5h-300q-20 0 -36 22t-16 44v415v2v1q0 9 -6 14.5t-14 5.5t-14 -5.5t-6 -14.5v-418q0 -41 31.5 -73t72.5 -32zM694 722
h-18h-46h-60q-33 0 -66 0.5t-60 0.5h-45h-17q-38 0 -68 -25.5t-34 -62.5q0 -1 -0.5 -2t-0.5 -2v0q0 -8 6 -14t14 -6t14 6t6 14q5 20 19.5 36t31.5 16h284v-118q0 -41 25 -66.5t67 -25.5h90v-380q0 -31 -19 -48.5t-43 -17.5q-8 0 -13.5 -6t-5.5 -13.5t5.5 -13t13.5 -6.5v0h1
h2h1q39 3 68 34.5t29 70.5v419zM746 512q-20 0 -36 28t-16 51v79l130 -158h-78zM460 329h234q10 0 18 7t8 17t-8 17.5t-18 7.5h-234q-11 0 -18.5 -7.5t-7.5 -17.5t7.5 -17t18.5 -7zM717 -29q-14 0 -17 -15h-1q-6 -12 -12 -20t-13.5 -11t-11 -3.5t-13 0t-12.5 0.5h-385
q-20 0 -42 22.5t-22 43.5v502q0 18 18 38.5t38 24.5v1q8 0 13.5 6t5.5 13.5t-5.5 13.5t-13.5 6v1l-1 -1v1h-3l-1 -1q-38 -4 -64.5 -34.5t-26.5 -68.5v-502q0 -41 31.5 -73t72.5 -32h390q73 0 90 61q3 5 3 9q0 7 -5.5 12.5t-12.5 5.5z" />
    <glyph glyph-name="uniE611" unicode="&#xe611;" 
d="M809 40l-31 -31l147 -148l31 32zM455 742q-106 0 -196 -52.5t-142 -142t-52 -195.5t52 -196t142 -142t196 -52t195.5 52t142 142t52.5 196t-52.5 195.5t-142 142t-195.5 52.5zM455 6q-94 0 -173.5 46.5t-126 126t-46.5 173.5t46.5 173.5t126 125.5t173.5 46t173.5 -46
t125.5 -125.5t46 -173.5t-46 -173.5t-125.5 -126t-173.5 -46.5z" />
    <glyph glyph-name="uniE612" unicode="&#xe612;" 
d="M832 688l-7 11h-610l-7 -9q-55 -70 -86 -133t-36.5 -109.5t-1 -76.5t16.5 -55q20 -41 57.5 -65.5t79.5 -24.5h6q85 4 145 65q53 -61 132 -61q82 0 136 64q80 -65 152 -65q62 0 105 49q25 30 31.5 72t-4.5 88t-25 86.5t-36 80.5t-31.5 56.5t-16.5 26.5zM834 199
q-10 0 -17 -7t-7 -17v0v-173q0 -20 -14 -34.5t-34 -14.5h-207h-288q-20 0 -34 14.5t-14 34.5v173q0 10 -7 17t-17 7t-17 -7t-7 -17v-178q0 -38 27 -65t64 -27h505q37 0 64 27t27 65v178q0 10 -7 17t-17 7z" />
    <glyph glyph-name="uniE613" unicode="&#xe613;" 
d="M581 374v360h-144v-360h-360v-144h360v-360h144v360h360v144h-360z" />
    <glyph glyph-name="uniE614" unicode="&#xe614;" 
d="M587 374h-6h-504v-144h504h6h354v144h-354z" />
    <glyph glyph-name="uniE615" unicode="&#xe615;" 
d="M65 747h382v-382h-382v382zM577 747h382v-382h-382v382zM65 235h382v-382h-382v382zM577 235h382v-382h-382v382z" />
    <glyph glyph-name="uniE616" unicode="&#xe616;" 
d="M333 251l121 122l-298 298q-50 -49 -50 -120t50 -121zM623 330q47 -23 111 -7t113 67q61 61 71.5 137t-37.5 123q-46 46 -122.5 36t-137.5 -70q-51 -51 -67 -114t7 -110q-42 -43 -146 -147.5t-187 -187.5l-83 -83l60 -60l294 294l295 -294l59 60l-294 292z" />
    <glyph glyph-name="uniE617" unicode="&#xe617;" 
d="M213 172l511 511l172 -170l-512 -512zM171 129l170 -170h-170v170zM439 23z" />
    <glyph glyph-name="uniE618" unicode="&#xe618;" 
d="M37 299l55 58l416 -279l414 280l56 -59l-470 -328zM37 480l471 328l470 -328l-470 -329zM508 -103l414 281l56 -60l-470 -328l-471 328l55 58z" />
    <glyph glyph-name="uniE619" unicode="&#xe619;" 
d="M238 481q-15 0 -28.5 5.5t-23.5 15t-15.5 22t-5.5 27.5q0 29 21.5 49.5t52 20.5t52 -20.5t21.5 -49.5q0 -15 -5.5 -27.5t-15.5 -22t-23.5 -15t-29.5 -5.5zM466 549q78 23 138 32t105.5 8t78 -10t54.5 -22q51 -30 64 -84q7 -42 10 -96q4 -46 3 -112q0 -64 -8 -146
q-4 -41 -19 -67.5t-35.5 -44t-46.5 -25.5q-25 -8 -51 -11q-61 -6 -137 13l14 62l62 -14q21 -2 37 1.5t27 10t18.5 15.5t11.5 19q10 22 10 51v305q1 87 -75 99t-217 -41l43 -12q-2 -10 -12 -25q-11 -16 -23 -34h251v-53h-142v-67h141v-53h-141v-112q34 12 58 31l-12 48l66 22
l56 -142l-82 -36l-15 57q-14 -11 -35 -24t-51.5 -23t-70 -16.5t-88.5 -4.5q-27 -1 -46 5t-31.5 18t-19.5 27t-10 31q-8 38 1 86l3 3h101q-1 -18 -4 -40.5t6 -38.5q7 -12 22.5 -15.5t28.5 -3.5q1 -1 5 -1v129h-145v53h145v67h-37q-12 -14 -24 -26l-20 -21l-19 -19l-43 40
q11 13 22.5 29t22.5 33q10 16 19 33q10 17 17 30l-24 -10l-24 -12l-26 -32q-14 -17 -30 -33l-11 6q-16 9 -24 15q-16 10 -36 21q28 26 49.5 61.5t36.5 68.5q17 39 30 80l104 -30l-7 -14l-7 -17q-5 -10 -12 -22zM177 453q23 -18 39 -31q14 -11 25 -21q11 -9 22 -21
q12 -12 27 -28q26 -26 25.5 -63.5t-15.5 -86.5l-8 -26q-3 -9 -7 -19t-9 -21q-2 -3 -14 -30l-22 -48q-13 -29 -32 -73l-113 74q36 33 66 66q26 27 51 57t34 51q11 21 7.5 38t-11.5 28q-10 12 -25 22l-87 57z" />
    <glyph glyph-name="uniE61A" unicode="&#xe61a;" 
d="M907 84h-789l394 397z" />
    <glyph glyph-name="uniE61B" unicode="&#xe61b;" 
d="M118 481h789l-394 -397z" />
    <glyph glyph-name="uniE61C" unicode="&#xe61c;" 
d="M211 634l635 -635l-33 -33l-635 635zM846 601l-635 -635l-33 33l635 635z" />
    <glyph glyph-name="uniE61D" unicode="&#xe61d;" 
d="M824 297h-103v-104h103v104zM824 124h-103v-103h103v103zM652 469h-104v-103h104v103zM824 469h-103v-103h103v103zM789 711h-68v-104h68v104zM548 711h-69v-104h69v104zM307 711h-69v-104h69v104zM824 676v-103h-138v103h-103v-103h-138v103h-104v-103h-138v103h-138
v-793h897v793h-138zM893 -48h-759v586h759v-586zM479 124h-103v-103h103v103zM307 297h-104v-104h104v104zM479 297h-103v-104h103v104zM479 469h-103v-103h103v103zM652 297h-104v-104h104v104zM652 124h-104v-103h104v103zM307 124h-104v-103h104v103z" />
    <glyph glyph-name="uniE61E" unicode="&#xe61e;" 
d="M0 -212v1024h654v-57h-597v-910h910v597h57v-654h-1024zM948 615l-121 121l40 40q10 10 24 13.5t34.5 -4.5t42 -29.5t29.5 -41.5t4.5 -34t-13.5 -25zM344 253l121 -121l-181 -60zM907 575l-402 -403l-121 121l403 402z" />
  </font>
</defs>
</svg>
